# xmcd
#
# Track frame offsets:
#       150
#       16805
#       31173
#       43648
#       57179
#       70334
#
# Disc length: 1108 seconds
#
# Revision: 1
# Processed by: cddbd v1.4PL0 Copyright (c) Steve Scherf et al.
# Submitted via: MusiCat 1.1
#
DISCID=44045206
DTITLE=Lilly and Rosie - The Lilly and the Rose
DYEAR=2001
DGENRE=
TTITLE0=The Lilly and the Rose
TTITLE1=Are you tired of me my darling
TTITLE2=High on the mountain
TTITLE3=Give this message to your heart
TTITLE4=When the Roses come again
TTITLE5=I'll fly away
EXTD=2001\n\n\nsubmitted by Stamppot
EXTT0=
EXTT1=
EXTT2=
EXTT3=
EXTT4=
EXTT5=
PLAYORDER=
